<?xml version="1.0" encoding="UTF-8"?>
<svg xmlns="http://www.w3.org/2000/svg" viewBox="0 0 1693.5 730.75">
  <defs>
    <style>
      .cls-1 {
        fill: #ffd772;
      }

      .cls-1, .cls-2, .cls-3, .cls-4, .cls-5, .cls-6, .cls-7 {
        stroke-miterlimit: 10;
      }

      .cls-1, .cls-2, .cls-3, .cls-5, .cls-6, .cls-7 {
        stroke: #000;
        stroke-width: 8.5px;
      }

      .cls-2, .cls-4 {
        fill: none;
      }

      .cls-3 {
        fill: #595959;
      }

      .cls-4 {
        stroke: #ff4848;
      }

      .cls-5 {
        fill: #e6646e;
      }

      .cls-6 {
        fill: #375e7d;
      }

      .cls-7 {
        fill: #f9f7f8;
      }
    </style>
  </defs>
  <g id="Layer_2" data-name="Layer 2">
    <path class="cls-4" d="M535.58,44.33h-76.33c-7.35,0-13.31-5.07-13.31-11.34V11.84c0-6.26,5.96-11.34,13.31-11.34h76.33c7.35,0,13.31,5.07,13.31,11.34v21.16c0,6.26-5.96,11.34-13.31,11.34Z"/>
    <path class="cls-4" d="M463.74,44.33v15.96c0,6.52-3.34,12.73-9.19,17.08l-23.19,17.26c-6.56,4.89-10.32,11.86-10.32,19.19v27.77c0,8.33,3.55,16.39,10.02,22.74h0c3.18,3.12,3.58,7.58,1.01,11.06l-6.71,9.07c-2.57,3.48-2.57,8.22,0,11.7l7.05,9.56c2.12,2.88,2.24,6.47.31,9.44l-8.6,13.21c-1.91,2.93-1.82,6.48.23,9.34l7.45,10.4c1.99,2.78,2.13,6.21.38,9.1l-8.23,13.54c-1.8,2.96-1.6,6.49.53,9.3l4.16,5.49c3.92,5.18,3.91,12.34-.03,17.51h0c-3.84,5.04-5.85,10.9-5.77,16.86l.99,73.65c.08,5.84,5.8,10.55,12.83,10.55h123.61c7.09,0,12.83-4.78,12.83-10.67v-79.11c0-2.58-1.19-5.07-3.32-6.95l-6.73-5.93c-4.66-4.11-5.04-10.43-.9-14.91l4.49-4.85c3.65-3.94,3.67-10.02.05-13.99l-6.96-7.62c-3.64-3.98-3.61-10.09.08-14.03l6.72-7.19c3.7-3.97,3.71-10.12.02-14.1l-6.93-7.46c-4.01-4.31-3.83-10.37.43-14.51l5.79-5.64c4.24-4.13,4.44-10.16.47-14.47l-6-6.52c-4.31-4.68-3.66-11.31,1.49-15.36l4.35-3.42c4.44-3.49,6.95-8.34,6.95-13.41v-34.65c0-4.94-2.38-9.67-6.61-13.14l-26.75-21.93c-5.26-4.31-8.21-10.19-8.21-16.32v-13.6"/>
    <line class="cls-4" x1="433.75" y1="211.14" x2="556.58" y2="211.14"/>
    <line class="cls-4" x1="431.2" y1="294.7" x2="559.45" y2="294.7"/>
    <line class="cls-4" x1="434.36" y1="169.71" x2="557.19" y2="169.71"/>
    <line class="cls-4" x1="433.87" y1="252.03" x2="556.69" y2="252.03"/>
  </g>
  <g id="Layer_3" data-name="Layer 3">
    <path class="cls-4" d="M0,7.03h21.87c3.67,0,6.89,2.45,7.86,6l27.93,101.85s-10.18-1.65-15.91,3.62c-5.42,4.99-4.57,14.07,1.62,18.07s14.29,3.1,14.29,3.1h106.95"/>
    <path class="cls-4" d="M37.74,42.25h139.17c2.56,0,4.45,2.4,3.86,4.89l-14.9,62.45c-.74,3.1-3.51,5.29-6.69,5.29H57.66"/>
    <circle class="cls-4" cx="76.78" cy="154.77" r="14.94"/>
    <circle class="cls-4" cx="148.19" cy="154.77" r="14.94"/>
    <line class="cls-4" x1="75.44" y1="42.25" x2="85.29" y2="114.88"/>
    <line class="cls-4" x1="112.78" y1="42.25" x2="112.78" y2="114.88"/>
    <line class="cls-4" x1="149.83" y1="42.25" x2="140.41" y2="114.88"/>
    <line class="cls-4" x1="47.7" y1="78.56" x2="173.28" y2="78.56"/>
    <rect class="cls-7" x="778.38" y="396.12" width="576" height="265.42"/>
    <path class="cls-6" d="M1354.38,661.54v43.31c0,18.1-21.65,21.65-21.65,21.65h-534.55s-19.8-1.64-19.8-23.51v-41.45h576Z"/>
    <path class="cls-6" d="M778.38,396.12v-44.55c0-21.54,20.11-20.42,20.11-20.42h533.31s22.58,0,22.58,20.11v44.85h-576Z"/>
    <path class="cls-5" d="M1202.57,331.15v-26.52c0-12.53,13.92-12.3,13.92-12.3,0,0,.12-39.79,0-46.17.12-14.62,10.21-12.76,10.21-12.76h40.14s9.4-.08,9.51,10.67v48.72s12.99-1.62,12.99,12.99v25.36h-86.77Z"/>
    <line class="cls-2" x1="1216.49" y1="292.34" x2="1276.35" y2="292.8"/>
    <path class="cls-3" d="M842.04,331.15s.46-12.95.46-23.27c0-12.53,13.92-12.3,13.92-12.3,0,0,.12-41.33,0-47.71.12-14.62,10.21-12.76,10.21-12.76h40.14s9.4-.08,9.51,10.67v50.26s12.99-1.62,12.99,12.99c0,6.5-.46,22.11-.46,22.11h-86.77Z"/>
    <line class="cls-2" x1="856.42" y1="295.58" x2="916.28" y2="296.04"/>
    <line class="cls-2" x1="858.5" y1="491.86" x2="942.95" y2="491.86"/>
    <line class="cls-2" x1="1228.32" y1="442.21" x2="1228.32" y2="531.31"/>
    <line class="cls-2" x1="1183.31" y1="486.76" x2="1271.94" y2="486.76"/>
    <path class="cls-1" d="M1077.86,444.83l-2.83,63.02c-.17,3.68,2.77,6.76,6.46,6.76h45.78c1.64,0,2.56,1.9,1.53,3.18l-76.13,95.56c-.58.72-1.74.26-1.66-.66l5.48-66.18c.24-2.91-2.11-5.37-5.02-5.28l-47.52,1.56c-3.28.11-5.16-3.7-3.08-6.24l75.46-92.31c.53-.65,1.58-.25,1.54.59Z"/>
  </g>
</svg>