<?xml version="1.0" encoding="UTF-8"?>
<svg id="Layer_2" data-name="Layer 2" xmlns="http://www.w3.org/2000/svg" xmlns:xlink="http://www.w3.org/1999/xlink" viewBox="0 0 384 384">
  <defs>
    <style>
      .cls-1 {
        fill: url(#linear-gradient);
      }

      .cls-1, .cls-2, .cls-3, .cls-4 {
        stroke-width: 0px;
      }

      .cls-5 {
        fill: none;
        stroke: #e4e4e4;
        stroke-miterlimit: 10;
        stroke-width: 8.5px;
      }

      .cls-2 {
        fill: url(#linear-gradient-2);
      }

      .cls-3 {
        fill: url(#linear-gradient-3);
      }

      .cls-4 {
        fill: url(#linear-gradient-4);
      }
    </style>
    <linearGradient id="linear-gradient" x1="0" y1="364.55" x2="38.9" y2="364.55" gradientUnits="userSpaceOnUse">
      <stop offset="0" stop-color="#bb4724"/>
      <stop offset="1" stop-color="#dd6938"/>
    </linearGradient>
    <linearGradient id="linear-gradient-2" x1="345.1" x2="384" xlink:href="#linear-gradient"/>
    <linearGradient id="linear-gradient-3" y1="19.45" y2="19.45" xlink:href="#linear-gradient"/>
    <linearGradient id="linear-gradient-4" x1="345.1" y1="19.45" x2="384" y2="19.45" xlink:href="#linear-gradient"/>
  </defs>
  <g>
    <path class="cls-5" d="m28.15,27.55c168.2,18.22,328.63,0,328.63,0,0,0-18.82,118.9,0,332.81-140.12-28.08-328.63,0-328.63,0,0,0,16.43-192.4,0-332.81Z"/>
    <line class="cls-5" x1="28.15" y1="27.55" x2="356.78" y2="360.37"/>
    <line class="cls-5" x1="356.78" y1="27.55" x2="28.15" y2="360.37"/>
    <path class="cls-5" d="m349.19,243.91l-105.55,104.15c-.2.2-.52.2-.72,0L35.44,139.05c-.2-.2-.2-.53,0-.73l106.47-102.93c.2-.19.52-.19.72,0l206.55,207.79c.2.2.2.53,0,.73Z"/>
    <path class="cls-5" d="m348.54,139.04l-207.13,210.36c-.2.2-.52.2-.73,0l-105.92-105.5c-.2-.2-.2-.53,0-.73L245.28,35.09c.2-.2.52-.2.72,0l102.54,103.23c.2.2.2.52,0,.72Z"/>
  </g>
  <circle class="cls-1" cx="19.45" cy="364.55" r="19.45"/>
  <circle class="cls-2" cx="364.55" cy="364.55" r="19.45"/>
  <circle class="cls-3" cx="19.45" cy="19.45" r="19.45"/>
  <circle class="cls-4" cx="364.55" cy="19.45" r="19.45"/>
</svg>