<?xml version="1.0" encoding="UTF-8"?>
<svg id="Layer_1" data-name="Layer 1" xmlns="http://www.w3.org/2000/svg" viewBox="0 0 233.9 303.04">
  <defs>
    <style>
      .cls-1 {
        fill: #fff;
      }
    </style>
  </defs>
  <path class="cls-1" d="m233.87,216.16C235.59,206.96,147.23.57,144.57.02c-1.62-.33-7.99,2.79-12.74,5.29-3.07,1.62-4.32,5.44-2.91,8.63,36.01,88.69,27.11,75.5-35.82,114.08-31.14,19.04-64.51-54.38-74.17-77.79-3.35-7.69-11.26-2.01-15.81,1.03-2.76,1.69-3.85,5.23-2.62,8.25,18,44.07,23.8,79.26,26.33,112.38,2.63,34.44,12.3,112.28,36.73,125.91,20.28,11.32,61.02,3.56,117.4-16.69,56.37-20.25,51.19-55.77,52.91-64.97Zm-80.12,49.2c-34.27,31.13-90.27,8.45-102.81-33.05-5.06-15.54-2.35-26.86-.59-38.51,14.07,87.95,75.36,79.02,101.84,69.03,1.54-.53,2.74,1.4,1.57,2.53Z"/>
</svg>