<?xml version="1.0" encoding="UTF-8"?>
<svg id="Layer_1" data-name="Layer 1" xmlns="http://www.w3.org/2000/svg" viewBox="0 0 130.39 102.69">
  <defs>
    <style>
      .cls-1 {
        fill: #b19772;
      }
    </style>
  </defs>
  <path class="cls-1" d="m3.92,46.76c-5.43,0-5.12,7.82.3,7.82h121.95c5.43,0,5.73-8.1.3-8.1l-122.55.29Zm8.11,11.16l3.55-3.34h-4.08m11.01,0l-6.25,5.82,13.9,12.96,13.89-12.96-6.24-5.82h-15.3Zm22.25,0l2.77,2.58,2.77-2.58h-5.53Zm12.48,0l-6.24,5.82,13.89,12.96,13.89-12.96-6.24-5.82h-15.3Zm22.25,0l2.77,2.58,2.77-2.58h-5.53Zm12.48,0l-6.24,5.82,13.89,12.96,13.89-12.96-6.24-5.82h-15.3Zm26.32,0h-4.07l3.31,3.09m-69.99,5.98l-13.92,12.96,13.89,12.96,13.92-12.96-13.89-12.96Zm34.73,0l-13.89,12.96,13.89,12.96,13.89-12.96-13.89-12.96Zm-69.07.35c1.04,6.56,2.05,13.75,3.62,20.21.11.46.23.89.34,1.32l9.54-8.91-13.51-12.61Zm103.39.03l-13.48,12.59,9.55,8.91c.11-.46.22-.89.33-1.32,1.57-6.46,2.6-13.62,3.61-20.18m-86.41,15.8l-11.49,10.74c.99,2.84,2.13,5.32,3.45,7.24,2.24,3.27,4.63,4.89,8.05,4.89h3.31l10.58-9.9-13.89-12.96Zm34.73.03l-13.89,12.99,10.55,9.85h6.67l10.55-9.88-13.89-12.96Zm34.73,0l-13.89,12.96,10.58,9.88h3.31c3.42,0,5.81-1.62,8.06-4.89,1.3-1.92,2.44-4.41,3.42-7.24l-11.48-10.71Zm-52.06,16.21l-7.14,6.63h14.24l-7.11-6.63Zm34.7,0l-7.11,6.63h14.22l-7.11-6.63Z"/>
  <path class="cls-1" d="m122.05,46.79h-9.55s-4.39-25.27-9.86-34.7c-1.09-1.88-3.19-3.05-5.48-3.05h-60.74c-2.88,0-5.52,1.47-6.9,3.84-2.99,5.14-7.73,15.8-9.7,34.02,0,0,0,0,0,0h-9.88S15.26-1.73,32.3.05h68.61s9.86-.1,13.6,14.59c4.43,17.45,7.89,32.25,7.89,32.25"/>
</svg>