<?xml version="1.0" encoding="utf-8"?>
<!-- Generator: Adobe Illustrator 27.7.0, SVG Export Plug-In . SVG Version: 6.00 Build 0)  -->
<svg version="1.1" id="Layer_1" xmlns="http://www.w3.org/2000/svg" xmlns:xlink="http://www.w3.org/1999/xlink" x="0px" y="0px"
	 viewBox="0 0 585.7 501.9" style="enable-background:new 0 0 585.7 501.9;" xml:space="preserve">
<style type="text/css">
	.st0{fill:#F9F7F8;stroke:#000000;stroke-width:8.5;stroke-miterlimit:10;}
	.st1{fill:#375E7D;stroke:#000000;stroke-width:8.5;stroke-miterlimit:10;}
	.st2{fill:#E6646E;stroke:#000000;stroke-width:8.5;stroke-miterlimit:10;}
	.st3{fill:none;stroke:#000000;stroke-width:8.5;stroke-miterlimit:10;}
	.st4{fill:#595959;stroke:#000000;stroke-width:8.5;stroke-miterlimit:10;}
	.st5{fill:#FFD772;stroke:#000000;stroke-width:8.5;stroke-miterlimit:10;}
</style>
<g id="Layer_3">
	<rect x="4.8" y="167.2" class="st0" width="576" height="265.4"/>
	<path class="st1" d="M580.8,432.7c-2.4,25.1,10.3,59.8-21.6,65c0,0-534.6,0-534.6,0c-27.9-2-18.3-42.7-19.8-65H580.8z"/>
	<path class="st1" d="M4.8,167.2c2.4-20.7-10-66.4,20.1-65c0,0,533.3,0,533.3,0c33.7,0.3,19.9,40.7,22.6,65L4.8,167.2L4.8,167.2z"/>
	<path class="st2" d="M429,102.3c1.5-14.6-6.5-39,13.9-38.8c3-66.5-15.6-58.9,50.3-58.9c0,0,9.4-0.1,9.5,10.7v48.7
		c18.4-2.2,11.9,25.5,13,38.3L429,102.3L429,102.3z"/>
	<line class="st3" x1="442.9" y1="63.5" x2="502.8" y2="63.9"/>
	<path class="st4" d="M68.5,102.3c0,0,0.5-13,0.5-23.3c0-12.5,13.9-12.3,13.9-12.3C85.8-1.6,67,6.2,133.2,6.2c0,0,9.4-0.1,9.5,10.7
		v50.3c18.5-2.1,11.8,25.8,12.5,35.1L68.5,102.3L68.5,102.3z"/>
	<line class="st3" x1="82.8" y1="66.7" x2="142.7" y2="67.2"/>
	<line class="st3" x1="84.9" y1="263" x2="169.4" y2="263"/>
	<line class="st3" x1="454.7" y1="213.3" x2="454.7" y2="302.4"/>
	<line class="st3" x1="409.7" y1="257.9" x2="498.4" y2="257.9"/>
	<path class="st5" d="M304.3,215.9c0.4,81-23.1,69.3,49.4,69.8c1.6,0,2.6,1.9,1.5,3.2c-1.6-0.6-76,100.5-77.8,94.9
		c0,0,5.5-66.2,5.5-66.2c0.2-2.9-2.1-5.4-5-5.3c0,0-47.5,1.6-47.5,1.6c-3.3,0.1-5.2-3.7-3.1-6.2C228.8,308.2,302.6,211,304.3,215.9
		L304.3,215.9z"/>
</g>
</svg>
