<?xml version="1.0" encoding="UTF-8"?>
<svg id="Layer_1" data-name="Layer 1" xmlns="http://www.w3.org/2000/svg" version="1.1" viewBox="0 0 607.8 437.8">
  <defs>
    <style>
      .cls-1 {
        fill: #b29872;
        stroke: #231f20;
        stroke-miterlimit: 10;
      }

      .cls-2 {
        fill: #fff4b3;
      }

      .cls-2, .cls-3, .cls-4, .cls-5 {
        stroke-width: 0px;
      }

      .cls-3 {
        fill: #ffe1c0;
      }

      .cls-4 {
        fill: #f37677;
      }

      .cls-5 {
        fill: #fff;
      }
    </style>
  </defs>
  <path class="cls-2" d="M0,437.8c6.7-48.8,36.1-101.2,68-145.3,51.6-71.6,122-120.2,199.6-138.6,92.6-22,228.4-38.7,340.3,10.2v273.7H0Z"/>
  <g>
    <path class="cls-3" d="M446.5,69.4l-74.9,138.9c-1.3,2.4-.8,5.3,1.2,6.3,3,1.4,8.2,6,11.2.3,0,0,74.9-138.9,74.9-138.9,3.1-5.5-3.5-7.5-6.4-9.1-2-1.1-4.7,0-6,2.5Z"/>
    <path class="cls-4" d="M374.1,40.3l25.4,13.7S435.1,7.9,476.2,1.2c0,0-65.4-12-102.1,39.1Z"/>
    <path class="cls-4" d="M537.5,128.5l-22.7-12.7s15.6-53.5,0-92c0,0,47.5,46.9,22.7,104.8Z"/>
    <path class="cls-5" d="M398.3,53.2l33.1,17.8S464.7,11.8,491.1,2.8c0,0-49.2-15.5-92.7,50.4Z"/>
    <path class="cls-5" d="M513.5,114.9l-33-18s30.4-58.7,23.6-85.7c0,0,40.9,31.4,9.3,103.8Z"/>
    <path class="cls-4" d="M479.8,96.8l-47.4-25.6c-.3-.1-.3-.4-.2-.7,3-5.4,32.2-58.2,54.1-66.6,2.7-1.1,5.8-.7,8.4.8l7.1,4.3c1.8,1.1,3,3,3.1,5.2.4,8.3-1.3,32.1-24.3,82.4-.1.3-.5.4-.7.2Z"/>
  </g>
  <g>
    <path class="cls-1" d="M453.2,213.1c-5.1,0-4.8,7.8.3,7.8h113.8c5.1,0,5.3-8.1.3-8.1l-114.4.3ZM460.8,224.3l3.3-3.3h-3.8M470.5,220.9l-5.8,5.8,13,13,13-13-5.8-5.8h-14.3ZM491.3,220.9l2.6,2.6,2.6-2.6h-5.2ZM503,220.9l-5.8,5.8,13,13,13-13-5.8-5.8h-14.3ZM523.7,220.9l2.6,2.6,2.6-2.6h-5.2ZM535.4,220.9l-5.8,5.8,13,13,13-13-5.8-5.8h-14.3ZM559.9,220.9h-3.8l3.1,3.1M493.9,230l-13,13,13,13,13-13-13-13ZM526.3,230l-13,13,13,13,13-13-13-13ZM461.8,230.3c1,6.6,1.9,13.7,3.4,20.2.1.5.2.9.3,1.3l8.9-8.9-12.6-12.6ZM558.3,230.4l-12.6,12.6,8.9,8.9c.1-.5.2-.9.3-1.3,1.5-6.5,2.4-13.6,3.4-20.2M477.7,246.2l-10.7,10.7c.9,2.8,2,5.3,3.2,7.2,2.1,3.3,4.3,4.9,7.5,4.9h3.1l9.9-9.9-13-13ZM510.1,246.2l-13,13,9.9,9.9h6.2l9.9-9.9-13-13ZM542.5,246.2l-13,13,9.9,9.9h3.1c3.2,0,5.4-1.6,7.5-4.9,1.2-1.9,2.3-4.4,3.2-7.2l-10.7-10.7ZM493.9,262.4l-6.7,6.6h13.3l-6.6-6.6ZM526.3,262.4l-6.6,6.6h13.3l-6.6-6.6Z"/>
    <path class="cls-1" d="M563.4,213.1h-8.9s-4.1-25.3-9.2-34.7c-1-1.9-3-3.1-5.1-3.1h-56.7c-2.7,0-5.2,1.5-6.4,3.8-2.8,5.1-7.2,15.8-9.1,34,0,0,0,0,0,0h-9.2s5-48.6,20.9-46.8h64s9.2-.1,12.7,14.6c4.1,17.4,7.4,32.3,7.4,32.3"/>
  </g>
</svg>