<?xml version="1.0" encoding="UTF-8"?>
<svg id="Layer_1" data-name="Layer 1" xmlns="http://www.w3.org/2000/svg" viewBox="0 0 300.56 208.88">
  <path d="m74.94,70.28l-6.91-20.93C26.63,65.35,0,98.1,0,110.63c2.21,13.95,27.88,46.01,68.27,61.59,4.22-5.89,7.62-11.58,10.35-16.99,7.95-15.85,10.79-29.49,10.18-38.84-1.26-19.46-5.64-26.69-13.86-46.11Zm-29.79,44.77c-5.47,0-9.91-4.45-9.91-9.91s4.44-9.91,9.91-9.91,9.91,4.44,9.91,9.91-4.44,9.91-9.91,9.91Z"/>
  <path d="m277.8,110.63l22.55-58.26c.5-1.3.08-2.77-1.02-3.61-1.11-.85-2.63-.86-3.75-.04l-58.54,43.18c-12.6-1.49-26.23-31.59-86.21-46.52l17.53-2.5c2.8-.4,5.25-2.03,6.71-4.46,1.45-2.42,1.73-5.36.77-8.01l-8.82-24.24c-1.08-2.96-3.57-5.19-6.64-5.92-3.06-.73-6.29.13-8.58,2.29l-40.13,37.77c-10.06.22-19.73,1.66-28.88,4l1.91,6.52c3.65,9.66,8.83,28.63,12.13,41.3h0s0,0,0,0c1.72,6.61,2.93,11.5,3.13,12.47.68,3.22,1.12,7.15,1.12,11.78,0,11.43-2.7,27.07-11.58,44.76-2.49,4.98-5.5,10.12-9.06,15.37,13.88,3.78,29.07,5.49,45.19,3.96l11.96,23.31c1.21,2.36,3.36,4.1,5.93,4.78,2.57.67,5.3.24,7.53-1.22l9.13-5.97c2.52-1.64,4.08-4.38,4.24-7.38.14-2.99-1.15-5.88-3.48-7.76l-12.23-9.85c61.79-14.73,75.59-45.54,88.33-47.04l58.54,43.18c1.12.82,2.64.81,3.75-.03,1.1-.84,1.51-2.32,1.02-3.61l-22.55-58.27Z"/>
</svg>