<?xml version="1.0" encoding="UTF-8"?>
<svg id="Layer_1" data-name="Layer 1" xmlns="http://www.w3.org/2000/svg" viewBox="0 0 109.11 68.54">
  <defs>
    <style>
      .cls-1 {
        fill: #3f4040;
      }

      .cls-2 {
        fill: #5764ad;
      }

      .cls-3 {
        fill: #363b96;
      }
    </style>
  </defs>
  <path class="cls-1" d="m109.1,51.43c1.11,22.82-110.21,22.81-109.09,0-1.11-22.81,110.21-22.81,109.09,0Z"/>
  <path class="cls-2" d="m106.53,47.59c0-7.41,0-26.25.03-33.42h-.03v-3.07c-25.05.93-79.18,1.9-103.8.49v2.08h-.03c-.1,7.11.13,27.03.03,34.41-7.79,16.7,89.53,27.32,103.73,1.97.01-.82.16-1.58.06-2.47Z"/>
  <path class="cls-3" d="m106.56,11.11c2.09,14.81-105.96,14.81-103.86,0-2.09-14.8,105.96-14.8,103.86,0Z"/>
  <g>
    <path class="cls-1" d="m21.77,57.2c-3.04,1.97-.72-28.76-1.41-29.16-.02-1.48,2.53-1.49,2.51,0-.57.52,1.34,30.41-1.11,29.16Z"/>
    <path class="cls-1" d="m32.19,60.55c-3.04,1.97-.72-28.76-1.41-29.16-.02-1.48,2.53-1.49,2.51,0-.57.52,1.34,30.41-1.11,29.16Z"/>
    <path class="cls-1" d="m44.18,61.99c-3.04,1.97-.72-28.76-1.41-29.16-.02-1.48,2.53-1.49,2.51,0-.57.52,1.34,30.41-1.11,29.16Z"/>
    <path class="cls-1" d="m55.96,62.94c-3.04,1.97-.72-28.76-1.41-29.16-.02-1.48,2.53-1.49,2.51,0-.57.52,1.34,30.41-1.11,29.16Z"/>
    <path class="cls-1" d="m67.97,61.99c-3.04,1.97-.72-28.76-1.41-29.16-.02-1.48,2.53-1.49,2.51,0-.57.52,1.34,30.41-1.11,29.16Z"/>
    <path class="cls-1" d="m101.23,52.98c-3.04,1.97-.72-28.76-1.41-29.16-.02-1.48,2.53-1.49,2.51,0-.57.52,1.34,30.41-1.11,29.16Z"/>
    <path class="cls-1" d="m91.79,57.2c-3.04,1.97-.72-28.76-1.41-29.16-.02-1.48,2.53-1.49,2.51,0-.57.52,1.34,30.41-1.11,29.16Z"/>
    <path class="cls-1" d="m79.85,60.55c-3.04,1.97-.72-28.76-1.41-29.16-.02-1.48,2.53-1.49,2.51,0-.57.52,1.34,30.41-1.11,29.16Z"/>
    <path class="cls-1" d="m10.29,52.48c-3.04,1.97-.72-28.76-1.41-29.16-.02-1.48,2.53-1.49,2.51,0-.57.52,1.34,30.41-1.11,29.16Z"/>
  </g>
</svg>