<?xml version="1.0" encoding="UTF-8"?>
<svg id="Layer_1" data-name="Layer 1" xmlns="http://www.w3.org/2000/svg" viewBox="0 0 231.08 290.14">
  <defs>
    <style>
      .cls-1 {
        fill: #808473;
      }

      .cls-2 {
        fill: #867f67;
      }

      .cls-3 {
        fill: #6d6e6e;
      }
    </style>
  </defs>
  <path class="cls-2" d="m187.32,72.64c.15-2.5.02-4.66-.79-6.65-.94-2.31-2.28-3.8-4.32-3.55-2.1.25-3.12,2.16-3.54,4.74-.34,2.13-.47,4.33-.87,6.43-.67,3.48-1.61,3.97-3.82,2.1-1.45-1.22-2.81-2.61-4.24-3.86-1.96-1.7-4.11-2.39-6.42-2-2.08.35-3.79,1.5-4.6,4.33-.77,2.72-.02,5.06,1.25,7.07,2.15,3.42,5.11,4.76,8.26,5.55,12.9,3.24,21.94,12.64,25.83,30.05,1.05,4.68,1.43,9.47,1.04,14.41-.32,4.1-.51,8.25.32,12.33,1.33,6.51,5.33,8.7,9.6,5.18,3.22-2.66,4.69-6.89,5.47-11.65.79-4.86,1.42-9.77,2.24-14.62.95-5.55,2.8-10.48,5.83-14.54,1.28-1.73,2.36-3.66,2.95-6.03.51-2.06.68-4.07-.48-5.84-1.18-1.8-2.73-1.59-4.26-1.24-.52.12-1.01.47-1.51.77-1.1.66-2.29,2.33-3.38.63-1.16-1.81-.09-3.68.69-5.28,1.87-3.83,4.64-6.39,7.31-9.06,2.67-2.66,5.55-4.97,7.95-8.11,3.49-4.57,4.25-10.07,1.92-13.56-2.27-3.39-6.12-3.01-9.94.98-.5.52-.99,1.06-1.52,1.51-1.46,1.23-2.94,1.4-4.06-.62-1.08-1.93-.49-3.65.72-5.1,1.3-1.55,2.42-3.23,2.67-5.7.54-5.28-2.42-8.72-6.15-7.1-4.58,1.99-4.55,1.98-5.98-4.38-.57-2.55-1.19-5.1-1.93-7.57-.5-1.67-1.13-3.33-1.9-4.79-2.36-4.47-5.83-6.07-8.59-4.13-2.65,1.86-3.72,6.49-2.67,11.55.49,2.36,1.31,4.51,2.25,6.59.6,1.34,1.18,2.74,1.57,4.21.29,1.08.92,2.58.11,3.41-.9.94-1.62-.56-2.24-1.29-1.36-1.6-2.78-2.38-4.37-.84-1.61,1.56-2.19,3.81-1.75,6.43.53,3.15,2.08,5.37,3.98,7.09,1.41,1.28,2.94,2.32,4.48,3.31,1.73,1.11,3.24,2.58,4.53,4.5,2.89,4.3,3.59,9.44,1.83,13.33-1.45,3.19-4.17,4.47-7.07,3.33-4.08-1.6-6.51-5.97-6.41-11.5,0-.36,0-.73,0-.81Z"/>
  <path class="cls-3" d="m64.02,62.22s7-9.47,11.06-5.69c4.07,3.78-8.18,14.53-.72,20.37,5.02,3.93,5.71,8.93,5.62,11.78-.06,1.98,3.63,3.39,7.17,2.72.16-.03.33-.06.5-.1,4.86-1.02,9.46,1.73,6.7,4.06-1.54,1.31-3.71,2.88-6.69,4.79-.6.38-1.01.84-1.17,1.33-1.15,3.69-5.59,19.7,4.69,18.3,0,0,6.93-3.3,8.7-.49,1.7,2.69-9.33,7.48-8.29,11.41.09.34.16.67.06,1-.83,2.86-4.71,17.3,0,21.06,5.23,4.19,21.17-29.1,27.13-40.55,5.96-11.45.12-15.63-7.55-19.1-7.55-3.41-23.84-9.11-20.85-26.41.12-.68.69-1.34,1.66-1.79,1.78-.83,4.96-1.44,8.6,1.81,5.59,5-5.93,8.9,4.12,14.31,0,0,12.07,13.48,25.02,2.96,3.29-2.67-2.36-7.45-6.27-13.25-.16-.24-.38-.46-.65-.67-3.18-2.42-24.18-19.19-15.47-33.44.1-.17.18-.34.21-.52.28-1.4,1.22-7.82-4.32-9.16-6.22-1.5-12.09-5.21-6.29-7.41,5.79-2.2,9.55,4.12,14.35,4.36,4.8.25,7.43-22.42,17.75-23.85,10.33-1.44,4.92,22.94-3.73,28.02-8.65,5.09-6.97,13.4-2.85,14.05s15.54-14.4,20.33-10.83c4.73,3.53.83,7.94-12.19,22.28-.28.3-.45.63-.51.97-.27,1.58-.75,6.46,2.38,11.29,3.81,5.87,14.51,18.21,9.26,25.61-3.8,5.35-13.7,18.91-15.35,26.36-.51,2.27,4.25,3.89,8,2.72,3.5-1.08,7.77-1.56,9.9,1.45,3.91,5.51-17.23,3.44-23.8,14.39-.21.35-.53.68-.96.96-2.51,1.62-11.15,7.66-6.34,11.02s11.45-6.34,13.56-9.59c.51-.78,1.62-1.41,3.09-1.72,2.78-.58,6.79-.68,5.52,3.98-1.66,6.12-7.69,10.44-9.12,11.4-.19.12-.38.23-.6.34-2.27,1.07-16.72,8.13-16.94,14.75-.17,5.31-19.33,5.59-29.25,5.38-3.14-.07-5.5-1.52-5.12-3.16,1.83-7.99,6.28-29.8,1.75-34.56-5.01-5.27-2.31-14.31-1.71-16.1.08-.24.11-.47.07-.72-.28-1.73-2.46-8.57-19.2-12.07-19.27-4.02-28.34-8.61-30.48-11.22-.85-1.03-1.02-2.15-.93-3.11.18-1.77,3.39-3.04,6.67-2.6,2.5.34,5.61,1.15,8.9,2.97,7.83,4.33,15.01,7.23,23.73,5.83,8.33-1.34-1.83-20.5-2.75-22.21-.05-.08-.09-.16-.15-.24-.92-1.25-8.92-11.97-15.33-18.4-6.82-6.83,1.34-10.12.77-9.61s10.04-1.62,17.26,14.5"/>
  <path class="cls-1" d="m55.84,270.2c-2.67-2.24-14.83-14.62-8.89-27.05,2.45-5.12.54-8.9-3.14-14.69-2.81-4.41-6.22,1.74-7.68,4.93-.4.88-1.62,1.06-2.32.37-7.51-7.39,8.45-12.81,4.69-18.6-3.98-6.13,8.26-17.15,6.93-24.12-1.23-6.48-9.94,3.43-11.16,4.86-.1.12-.22.22-.35.3-11.51,6.92-10.73-11.32-4.28-14.41,6.49-3.11,2.51-8.91,2.51-8.91,0,0-.74-2.2-6.29-.52-5.55,1.67,1.42-4.18-1.2-12.67-2.62-8.49,10.73-15.76,1.2-21.43-9.53-5.67-6.39,11.1-11.44,22.01-5.04,10.91,6.08,23.94-4.17,18.78-10.25-5.16,7.3-24.67-3.47-20.49-10.77,4.19-5.15,12.82-5.7,19.74-.55,6.92,18.39,26.81,14.16,29.8-4.23,2.99-5.95-3.27-8.73-5.94-2.79-2.67-5.76-2.9-6.46,2.04-.69,4.94,9.25,19.04,14.62,20.98,5.37,1.94,16.01,28.44,15.44,33.5s-3.56,1.91-13.12,1.34c-8.22-.49-4.41,4.9-3.17,6.43.21.26.51.43.85.49,28.77,5.15,42.96,16.87,48.48,22.76.91.97,2.59.25,2.43-1.03,0,0,2.94-7.84-9.72-18.46Z"/>
</svg>