<?xml version="1.0" encoding="UTF-8"?>
<svg id="Layer_1" data-name="Layer 1" xmlns="http://www.w3.org/2000/svg" viewBox="0 0 268.77 280.83">
  <defs>
    <style>
      .cls-1 {
        fill: #a9af94;
      }

      .cls-2 {
        fill: #867f67;
      }

      .cls-3 {
        fill: #727f86;
      }

      .cls-4 {
        fill: #6d6e6e;
      }
    </style>
  </defs>
  <path class="cls-1" d="m147.84,226.31c-2.67-2.24-14.83-14.62-8.89-27.05,2.45-5.12.54-8.9-3.14-14.69-2.81-4.41-6.22,1.74-7.68,4.93-.4.88-1.62,1.06-2.32.37-7.51-7.39,8.45-12.81,4.69-18.6-3.98-6.13,8.26-17.15,6.93-24.12-1.23-6.48-9.94,3.43-11.16,4.86-.1.12-.22.22-.35.3-11.51,6.92-10.73-11.32-4.28-14.41,6.49-3.11,2.51-8.91,2.51-8.91,0,0-.74-2.2-6.29-.52-5.55,1.67,1.42-4.18-1.2-12.67-2.62-8.49,10.73-15.76,1.2-21.43-9.53-5.67-6.39,11.1-11.44,22.01-5.04,10.91,6.08,23.94-4.17,18.78-10.25-5.16,7.3-24.67-3.47-20.49-10.77,4.19-5.15,12.82-5.7,19.74-.55,6.92,18.39,26.81,14.16,29.8-4.23,2.99-5.95-3.27-8.73-5.94-2.79-2.67-5.76-2.9-6.46,2.04-.69,4.94,9.25,19.04,14.62,20.98,5.37,1.94,16.01,28.44,15.44,33.5s-3.56,1.91-13.12,1.34c-8.22-.49-4.41,4.9-3.17,6.43.21.26.51.43.85.49,28.77,5.15,42.96,16.87,48.48,22.76.91.97,2.59.25,2.43-1.03,0,0,2.94-7.84-9.72-18.46Z"/>
  <path class="cls-2" d="m139.52,91.59s6.71-9.08,10.61-5.45c3.9,3.63-7.84,13.93-.69,19.53,4.81,3.77,5.47,8.56,5.39,11.29-.06,1.9,3.48,3.25,6.87,2.61.16-.03.32-.06.48-.1,4.66-.98,9.07,1.65,6.43,3.89-1.48,1.25-3.56,2.76-6.41,4.59-.58.37-.97.81-1.12,1.28-1.11,3.54-5.36,18.88,4.5,17.54,0,0,6.64-3.16,8.34-.47,1.63,2.58-8.94,7.17-7.95,10.94.09.32.15.64.06.96-.79,2.75-4.51,16.58,0,20.2,5.02,4.01,20.3-27.9,26.01-38.88,5.71-10.97.11-14.98-7.24-18.31-7.23-3.27-22.86-8.73-19.99-25.32.11-.65.66-1.28,1.59-1.72,1.71-.79,4.76-1.38,8.25,1.74,5.36,4.79-5.69,8.54,3.95,13.72,0,0,11.57,12.93,23.99,2.84,3.15-2.56-2.26-7.14-6.01-12.7-.15-.23-.36-.44-.62-.64-3.04-2.32-23.18-18.39-14.83-32.06.1-.16.17-.32.2-.49.26-1.34,1.17-7.5-4.14-8.78-5.97-1.44-11.59-5-6.03-7.11,5.56-2.11,9.15,3.95,13.76,4.18,4.6.24,7.12-21.49,17.02-22.87,9.9-1.38,4.71,21.99-3.58,26.87-8.29,4.88-6.68,12.85-2.73,13.47,3.95.63,14.9-13.81,19.49-10.38,4.54,3.39.79,7.61-11.69,21.36-.27.29-.43.61-.49.93-.26,1.52-.72,6.2,2.28,10.83,3.66,5.63,13.91,17.46,8.87,24.56-3.64,5.13-13.13,18.13-14.72,25.27-.48,2.18,4.07,3.73,7.67,2.61,3.36-1.04,7.45-1.49,9.49,1.39,3.75,5.29-16.52,3.3-22.82,13.8-.2.33-.51.65-.92.92-2.41,1.56-10.69,7.35-6.08,10.56,4.47,3.12,10.98-6.08,13-9.19.49-.75,1.56-1.35,2.96-1.64,2.67-.55,6.51-.65,5.29,3.82-1.59,5.87-7.37,10.01-8.74,10.93-.18.12-.36.22-.58.32-2.18,1.03-16.03,7.8-16.24,14.14-.17,5.09-18.53,5.36-28.05,5.16-3.01-.06-5.27-1.46-4.91-3.03,1.75-7.66,6.02-28.57,1.67-33.13-4.8-5.05-2.21-13.72-1.64-15.43.08-.23.1-.45.06-.69-.27-1.66-2.36-8.22-18.41-11.57-18.48-3.86-27.17-8.25-29.23-10.76-.81-.99-.98-2.06-.89-2.98.17-1.7,3.25-2.91,6.39-2.49,2.4.32,5.38,1.11,8.53,2.85,7.51,4.15,14.39,6.93,22.75,5.59,7.99-1.28-1.75-19.66-2.64-21.29-.04-.08-.09-.15-.15-.23-.89-1.19-8.55-11.48-14.7-17.64-6.54-6.54,1.28-9.71.74-9.21s9.63-1.55,16.54,13.9"/>
  <path class="cls-4" d="m208.21,259.2c2.89-2.43,16.09-15.85,9.64-29.34-2.66-5.56-.59-9.65,3.41-15.93,3.05-4.79,6.74,1.89,8.33,5.35.44.95,1.75,1.14,2.51.4,8.15-8.02-9.16-13.89-5.08-20.17,4.32-6.65-8.96-18.6-7.52-26.16,1.34-7.03,10.79,3.72,12.11,5.27.11.13.24.23.38.32,12.48,7.5,11.64-12.27,4.64-15.63-7.04-3.37-2.72-9.67-2.72-9.67,0,0,.8-2.38,6.82-.57,6.02,1.81-1.54-4.54,1.3-13.75,2.85-9.21-11.64-17.1-1.3-23.24,10.34-6.15,6.93,12.04,12.41,23.87,5.47,11.83-6.59,25.97,4.53,20.38,11.12-5.59-7.92-26.76,3.76-22.22,11.68,4.54,5.59,13.91,6.18,21.41.59,7.51-19.95,29.08-15.36,32.32,4.59,3.24,6.45-3.54,9.47-6.44,3.02-2.9,6.25-3.15,7.01,2.21.75,5.36-10.03,20.65-15.86,22.76s-17.36,30.85-16.74,36.34,3.86,2.07,14.23,1.45c8.91-.53,4.78,5.32,3.44,6.97-.23.28-.55.46-.92.53-31.21,5.59-46.6,18.3-52.59,24.69-.98,1.05-2.81.28-2.63-1.12,0,0-3.19-8.5,10.54-20.03Z"/>
  <path class="cls-3" d="m10.01,133.09c2.67-2.24,14.83-14.62,8.89-27.05-2.45-5.12-.54-8.9,3.14-14.69,2.81-4.41,6.22,1.74,7.68,4.93.4.88,1.62,1.06,2.32.37,7.51-7.39-8.45-12.81-4.69-18.6,3.98-6.13-8.26-17.15-6.93-24.12,1.23-6.48,9.94,3.43,11.16,4.86.1.12.22.22.35.3,11.51,6.92,10.73-11.32,4.28-14.41-6.49-3.11-2.51-8.91-2.51-8.91,0,0,.74-2.2,6.29-.52,5.55,1.67-1.42-4.18,1.2-12.67,2.62-8.49-10.73-15.76-1.2-21.43,9.53-5.67,6.39,11.1,11.44,22.01,5.04,10.91-6.08,23.94,4.17,18.78,10.25-5.16-7.3-24.67,3.47-20.49,10.77,4.19,5.15,12.82,5.7,19.74.55,6.92-18.39,26.81-14.16,29.8,4.23,2.99,5.95-3.27,8.73-5.94,2.79-2.67,5.76-2.9,6.46,2.04.69,4.94-9.25,19.04-14.62,20.98-5.37,1.94-16.01,28.44-15.44,33.5s3.56,1.91,13.12,1.34c8.22-.49,4.41,4.9,3.17,6.43-.21.26-.51.43-.85.49-28.77,5.15-42.96,16.87-48.48,22.76-.91.97-2.59.25-2.43-1.03,0,0-2.94-7.84,9.72-18.46Z"/>
</svg>