<?xml version="1.0" encoding="UTF-8"?>
<svg id="Layer_1" data-name="Layer 1" xmlns="http://www.w3.org/2000/svg" viewBox="0 0 169.81 94.25">
  <path d="m40.28,12.67C21.13,19.67,6.57,32.47,0,43.71c6.44,11.45,20.98,24.62,40.26,31.9,4.93-8.9,7.84-19.5,7.94-30.93.1-11.84-2.82-22.84-7.92-32.02Zm-14.29,32.67c-2.76-.02-4.97-2.7-4.94-5.96s2.28-5.91,5.04-5.89c2.76.02,4.97,2.69,4.95,5.97-.03,3.27-2.29,5.9-5.04,5.88Z"/>
  <path d="m164.78,45.92c-.34-1.27-.32-2.65.03-3.92l4.72-16.82c.69-2.48.05-5.2-1.61-6.89-1.67-1.68-4.04-1.99-5.99-.79l-27.09,16.8c-13.19-11.52-26.37-18.79-39.09-22.83-.18-3.03-.83-6.91-2.8-9.88-3.09-4.65-22.92,1.95-32.58,6.32-5.21.58-10.23,1.65-14.99,3.07,5.08,9.8,7.99,21.38,7.89,33.75s-2.99,23.12-7.92,32.63c7.04,2.18,14.63,3.57,22.61,3.81.3.56.67,1.07,1.13,1.5l10.53,10.15c2.24,2.16,5.52,1.83,7.44-.73l1.53-2.06c1.14-1.53,1.6-3.61,1.24-5.6-.36-2-1.51-3.66-3.08-4.49l-.44-.23c15.91-3.02,32.84-10.85,49.88-25.63l25.3,16.29c1.93,1.24,4.3.97,6-.69,1.7-1.66,2.38-4.37,1.73-6.85l-4.44-16.91Z"/>
</svg>