<?xml version="1.0" encoding="utf-8"?>
<!-- Generator: Adobe Illustrator 27.7.0, SVG Export Plug-In . SVG Version: 6.00 Build 0)  -->
<svg version="1.1" id="Layer_1" xmlns="http://www.w3.org/2000/svg" xmlns:xlink="http://www.w3.org/1999/xlink" x="0px" y="0px"
	 viewBox="0 0 356.3 272" style="enable-background:new 0 0 356.3 272;" xml:space="preserve">
<style type="text/css">
	.st0{fill:#3C8956;}
</style>
<path class="st0" d="M284.5,252c-0.1,0-0.1,0-0.2-0.1c0.3-0.4,0.6-0.8,0.8-1.2l49.9-112.1c0.2-0.4,0.3-0.9,0.4-1.4
	c0.1,0,0.1,0.1,0.2,0.1c9.1,4.1,18.2,3.5,20.4-1.3s-3.5-11.9-12.7-16c-9.1-4.1-18.2-3.5-20.4,1.3c0,0,0,0.1,0,0.1
	c-0.8-0.4-1.6-0.8-2.5-1.2L94.7,19.8c-0.8-0.4-1.7-0.7-2.5-1c0,0,0-0.1,0.1-0.1c2.1-4.8-3.5-11.9-12.7-16S61.3-0.8,59.2,4
	s3.5,11.9,12.7,16c0.1,0,0.1,0,0.2,0.1c-0.3,0.4-0.6,0.8-0.8,1.2L21.4,133.4c-0.2,0.4-0.3,0.9-0.4,1.4c-0.1,0-0.1-0.1-0.2-0.1
	c-9.1-4.1-18.2-3.5-20.4,1.3S4,148,13.1,152s18.2,3.5,20.4-1.3c0,0,0-0.1,0-0.1c0.8,0.4,1.6,0.8,2.5,1.2l225.6,100.4
	c0.8,0.4,1.7,0.7,2.5,1c0,0,0,0.1-0.1,0.1c-2.1,4.8,3.5,11.9,12.7,16c9.1,4.1,18.2,3.5,20.4-1.3C299.2,263.2,293.6,256.1,284.5,252z
	 M273.2,108.2c0.9-1.9,4.5-2.2,8.2-0.5l41.6,18.5c0.9,2.2,2.7,4.5,5.3,6.7l-9.7,21.8c-0.9,1.9-4.5,2.2-8.2,0.5l-41.8-18.6
	c-3.7-1.6-5.9-4.5-5.1-6.4L273.2,108.2z M303.8,187.7c-0.9,1.9-4.5,2.2-8.2,0.5l-41.8-18.6c-3.7-1.6-5.9-4.5-5.1-6.4l9.7-21.9
	c0.9-1.9,4.5-2.2,8.2-0.5l41.8,18.6c3.7,1.6,5.9,4.5,5.1,6.4 M244.2,173.5c0.9-1.9,4.5-2.2,8.2-0.5l41.8,18.6
	c3.7,1.6,5.9,4.5,5.1,6.4l-9.7,21.9c-0.9,1.9-4.5,2.2-8.2,0.5l-41.8-18.6c-3.7-1.6-5.9-4.5-5.1-6.4L244.2,173.5z M81.9,164.9
	c-0.9,1.9-4.5,2.2-8.2,0.5l-39.9-17.8c-0.4-2.9-2.7-6.1-6.3-8.9l9-20.2c0.9-1.9,4.5-2.2,8.2-0.5l41.8,18.6c3.7,1.6,5.9,4.5,5.1,6.4
	L81.9,164.9z M96,133.2c-0.9,1.9-4.5,2.2-8.2,0.5l-41.8-18.6c-3.7-1.6-5.9-4.5-5.1-6.4l9.7-21.9c0.9-1.9,4.5-2.2,8.2-0.5l41.8,18.6
	c3.7,1.6,5.9,4.5,5.1,6.4L96,133.2z M110.1,101.5c-0.9,1.9-4.5,2.2-8.2,0.5L60.2,83.5c-3.7-1.6-5.9-4.5-5.1-6.4l9.7-21.9
	c0.9-1.9,4.5-2.2,8.2-0.5l41.8,18.6c3.7,1.6,5.9,4.5,5.1,6.4L110.1,101.5z M124.9,68.5c-0.9,1.9-4.5,2.2-8.2,0.5L74.9,50.4
	c-3.7-1.6-5.9-4.5-5.1-6.4l9.6-21.6c3.5,0.6,6.7,0.5,9.1-0.4l41,18.3c3.7,1.6,5.9,4.5,5.1,6.4L124.9,68.5z M146.7,193.7
	c-0.9,1.9-4.5,2.2-8.2,0.5l-41.8-18.6c-3.7-1.6-5.9-4.5-5.1-6.4l9.7-21.9c0.9-1.9,4.5-2.2,8.2-0.5l41.8,18.6
	c3.7,1.6,5.9,4.5,5.1,6.4L146.7,193.7z M160.8,162c-0.9,1.9-4.5,2.2-8.2,0.5L110.8,144c-3.7-1.6-5.9-4.5-5.1-6.4l9.7-21.9
	c0.9-1.9,4.5-2.2,8.2-0.5l41.8,18.6c3.7,1.6,5.9,4.5,5.1,6.4L160.8,162z M174.9,130.3c-0.9,1.9-4.5,2.2-8.2,0.5l-41.8-18.6
	c-3.7-1.6-5.9-4.5-5.1-6.4l9.7-21.9c0.9-1.9,4.5-2.2,8.2-0.5l41.8,18.6c3.7,1.6,5.9,4.5,5.1,6.4L174.9,130.3z M189.6,97.2
	c-0.9,1.9-4.5,2.2-8.2,0.5l-41.8-18.6c-3.7-1.6-5.9-4.5-5.1-6.4l9.7-21.9c0.9-1.9,4.5-2.2,8.2-0.5l41.8,18.6
	c3.7,1.6,5.9,4.5,5.1,6.4L189.6,97.2z M210.9,222.3c-0.9,1.9-4.5,2.2-8.2,0.5l-41.8-18.6c-3.7-1.6-5.9-4.5-5.1-6.4l9.7-21.9
	c0.9-1.9,4.5-2.2,8.2-0.5l41.8,18.6c3.7,1.6,5.9,4.5,5.1,6.4L210.9,222.3z M225,190.6c-0.9,1.9-4.5,2.2-8.2,0.5L175,172.5
	c-3.7-1.6-5.9-4.5-5.1-6.4l9.7-21.9c0.9-1.9,4.5-2.2,8.2-0.5l41.8,18.6c3.7,1.6,5.9,4.5,5.1,6.4L225,190.6z M239.1,158.9
	c-0.9,1.9-4.5,2.2-8.2,0.5l-41.8-18.6c-3.7-1.6-5.9-4.5-5.1-6.4l9.7-21.9c0.9-1.9,4.5-2.2,8.2-0.5l41.8,18.6
	c3.7,1.6,5.9,4.5,5.1,6.4L239.1,158.9z M253.8,125.8c-0.9,1.9-4.5,2.2-8.2,0.5l-41.8-18.6c-3.7-1.6-5.9-4.5-5.1-6.4l9.7-21.9
	c0.9-1.9,4.5-2.2,8.2-0.5l41.8,18.6c3.7,1.6,5.9,4.5,5.1,6.4L253.8,125.8z M225.6,233c-3.7-1.6-5.9-4.5-5.1-6.4l9.7-21.9
	c0.9-1.9,4.5-2.2,8.2-0.5l41.8,18.6c3.7,1.6,5.9,4.5,5.1,6.4l-9.1,20.4c-4.2-0.6-7.9-0.1-10.2,1.4L225.6,233z"/>
</svg>
