<?xml version="1.0" encoding="UTF-8"?>
<svg id="Layer_1" data-name="Layer 1" xmlns="http://www.w3.org/2000/svg" viewBox="0 0 117.12 274.59">
  <defs>
    <style>
      .cls-1 {
        fill: #1f542a;
      }
    </style>
  </defs>
  <path class="cls-1" d="m81.17,16.58l25.8,5.56c4.52.98,8.98-1.9,9.96-6.43.98-4.52-1.9-8.98-6.43-9.96L84.71.19c-4.52-.98-8.98,1.9-9.96,6.43-.98,4.52,1.9,8.98,6.43,9.96Z"/>
  <path class="cls-1" d="m39.32,273.2c38.3,4.76,45.08-4.26,45.08-4.26,0,0,26.62-133.67,31.29-151.32,6.1-23.05-11.52-36.89-17.23-40.69l14.21-65.88-32.13-6.93-14.21,65.88c-6.77,1.1-28.53,6.45-32.47,29.97C30.85,117.98,0,250.74,0,250.74c0,0,2.46,11.02,39.32,22.46"/>
</svg>