<?xml version="1.0" encoding="UTF-8"?>
<svg id="Layer_1" data-name="Layer 1" xmlns="http://www.w3.org/2000/svg" viewBox="0 0 1280.89 372.56">
  <defs>
    <style>
      .cls-1 {
        fill: #b49a80;
      }

      .cls-2 {
        fill: #5c503e;
      }

      .cls-3 {
        fill: #7b6955;
      }

      .cls-4 {
        fill: #4c4135;
      }
    </style>
  </defs>
  <path class="cls-1" d="m863.65,238.62c120.38-48.17,417.24-46.65,417.24-46.65l-.6,93.29h-726.02s-5.98-15.34-5.98-15.34"/>
  <path class="cls-3" d="m69.89,191.97c-56.03-29.25,301.26,122.62,907.92,64.02,208.85-20.18,300.91-29.28,300.91-29.28l-1,93.29H69.89v-128.03"/>
  <path class="cls-2" d="m1280.89,191.97s-755.61,206-962.04,90.3C112.41,166.56,0,240.97,0,240.97l1.06,131.6h1279.83v-180.59"/>
  <path class="cls-4" d="m831.21,372.56l162.5-183.61h89.9s-15.24-64,27.43-59.43,88.38-48.76,88.38-48.76l80.26,16.74,1.2,275.06h-449.68Z"/>
  <path class="cls-4" d="m1.06,0s86.8,21,131.71,64c27.91,26.72,46,76.41,46,76.41l60.66,15.02s83.81,15.24,79.24,54.86,39.29,162.28,39.29,162.28H1.06"/>
</svg>