<?xml version="1.0" encoding="UTF-8"?>
<svg id="Layer_1" data-name="Layer 1" xmlns="http://www.w3.org/2000/svg" viewBox="0 0 1280.89 406.94">
  <defs>
    <style>
      .cls-1 {
        fill: #b49a80;
      }

      .cls-2 {
        fill: #a9af94;
      }

      .cls-3 {
        fill: #808473;
      }

      .cls-4 {
        fill: #867f67;
      }

      .cls-5 {
        fill: #5c503e;
      }

      .cls-6 {
        fill: #727f86;
      }

      .cls-7 {
        fill: #6d6e6e;
      }

      .cls-8 {
        fill: #7b6955;
      }

      .cls-9 {
        fill: #4c4135;
      }
    </style>
  </defs>
  <path class="cls-1" d="m863.65,272.05c120.38-48.17,417.24-46.65,417.24-46.65l-.6,93.29h-726.02s-5.98-15.34-5.98-15.34"/>
  <path class="cls-8" d="m69.89,225.4c-56.03-29.25,301.26,122.62,907.92,64.02,208.85-20.18,300.91-29.28,300.91-29.28l-1,93.29H69.89v-128.03"/>
  <path class="cls-4" d="m1204.67,72.64c.15-2.5.02-4.66-.79-6.65-.94-2.31-2.28-3.8-4.32-3.55-2.1.25-3.12,2.16-3.54,4.74-.34,2.13-.47,4.33-.87,6.43-.67,3.48-1.61,3.97-3.82,2.1-1.45-1.22-2.81-2.61-4.24-3.86-1.96-1.7-4.11-2.39-6.42-2-2.08.35-3.79,1.5-4.6,4.33-.77,2.72-.02,5.06,1.25,7.07,2.15,3.42,5.11,4.76,8.26,5.55,12.9,3.24,21.94,12.64,25.83,30.05,1.05,4.68,1.43,9.47,1.04,14.41-.32,4.1-.51,8.25.32,12.33,1.33,6.51,5.33,8.7,9.6,5.18,3.22-2.66,4.69-6.89,5.47-11.65.79-4.86,1.42-9.77,2.24-14.62.95-5.55,2.8-10.48,5.83-14.54,1.28-1.73,2.36-3.66,2.95-6.03.51-2.06.68-4.07-.48-5.84-1.18-1.8-2.73-1.59-4.26-1.24-.52.12-1.01.47-1.51.77-1.1.66-2.29,2.33-3.38.63-1.16-1.81-.09-3.68.69-5.28,1.87-3.83,4.64-6.39,7.31-9.06,2.67-2.66,5.55-4.97,7.95-8.11,3.49-4.57,4.25-10.07,1.92-13.56-2.27-3.39-6.12-3.01-9.94.98-.5.52-.99,1.06-1.52,1.51-1.46,1.23-2.94,1.4-4.06-.62-1.08-1.93-.49-3.65.72-5.1,1.3-1.55,2.42-3.23,2.67-5.7.54-5.28-2.42-8.72-6.15-7.1-4.58,1.99-4.55,1.98-5.98-4.38-.57-2.55-1.19-5.1-1.93-7.57-.5-1.67-1.13-3.33-1.9-4.79-2.36-4.47-5.83-6.07-8.59-4.13-2.65,1.86-3.72,6.49-2.67,11.55.49,2.36,1.31,4.51,2.25,6.59.6,1.34,1.18,2.74,1.57,4.21.29,1.08.92,2.58.11,3.41-.9.94-1.62-.56-2.24-1.29-1.36-1.6-2.78-2.38-4.37-.84-1.61,1.56-2.19,3.81-1.75,6.43.53,3.15,2.08,5.37,3.98,7.09,1.41,1.28,2.94,2.32,4.48,3.31,1.73,1.11,3.24,2.58,4.53,4.5,2.89,4.3,3.59,9.44,1.83,13.33-1.45,3.19-4.17,4.47-7.07,3.33-4.08-1.6-6.51-5.97-6.41-11.5,0-.36,0-.73,0-.81Z"/>
  <path class="cls-7" d="m1081.38,62.22s7-9.47,11.06-5.69c4.07,3.78-8.18,14.53-.72,20.37,5.02,3.93,5.71,8.93,5.62,11.78-.06,1.98,3.63,3.39,7.17,2.72.16-.03.33-.06.5-.1,4.86-1.02,9.46,1.73,6.7,4.06-1.54,1.31-3.71,2.88-6.69,4.79-.6.38-1.01.84-1.17,1.33-1.15,3.69-5.59,19.7,4.69,18.3,0,0,6.93-3.3,8.7-.49,1.7,2.69-9.33,7.48-8.29,11.41.09.34.16.67.06,1-.83,2.86-4.71,17.3,0,21.06,5.23,4.19,21.17-29.1,27.13-40.55,5.96-11.45.12-15.63-7.55-19.1-7.55-3.41-23.84-9.11-20.85-26.41.12-.68.69-1.34,1.66-1.79,1.78-.83,4.96-1.44,8.6,1.81,5.59,5-5.93,8.9,4.12,14.31,0,0,12.07,13.48,25.02,2.96,3.29-2.67-2.36-7.45-6.27-13.25-.16-.24-.38-.46-.65-.67-3.18-2.42-24.18-19.19-15.47-33.44.1-.17.18-.34.21-.52.28-1.4,1.22-7.82-4.32-9.16-6.22-1.5-12.09-5.21-6.29-7.41,5.79-2.2,9.55,4.12,14.35,4.36,4.8.25,7.43-22.42,17.75-23.85,10.33-1.44,4.92,22.94-3.73,28.02-8.65,5.09-6.97,13.4-2.85,14.05,4.12.65,15.54-14.4,20.33-10.83,4.73,3.53.83,7.94-12.19,22.28-.28.3-.45.63-.51.97-.27,1.58-.75,6.46,2.38,11.29,3.81,5.87,14.51,18.21,9.26,25.61-3.8,5.35-13.7,18.91-15.35,26.36-.51,2.27,4.25,3.89,8,2.72,3.5-1.08,7.77-1.56,9.9,1.45,3.91,5.51-17.23,3.44-23.8,14.39-.21.35-.53.68-.96.96-2.51,1.62-11.15,7.66-6.34,11.02,4.67,3.26,11.45-6.34,13.56-9.59.51-.78,1.62-1.41,3.09-1.72,2.78-.58,6.79-.68,5.52,3.98-1.66,6.12-7.69,10.44-9.12,11.4-.19.12-.38.23-.6.34-2.27,1.07-16.72,8.13-16.94,14.75-.17,5.31-19.33,5.59-29.25,5.38-3.14-.07-5.5-1.52-5.12-3.16,1.83-7.99,6.28-29.8,1.75-34.56-5.01-5.27-2.31-14.31-1.71-16.1.08-.24.11-.47.07-.72-.28-1.73-2.46-8.57-19.2-12.07-19.27-4.02-28.34-8.61-30.48-11.22-.85-1.03-1.02-2.15-.93-3.11.18-1.77,3.39-3.04,6.67-2.6,2.5.34,5.61,1.15,8.9,2.97,7.83,4.33,15.01,7.23,23.73,5.83,8.33-1.34-1.83-20.5-2.75-22.21-.05-.08-.09-.16-.15-.24-.92-1.25-8.92-11.97-15.33-18.4-6.82-6.83,1.34-10.12.77-9.61s10.04-1.62,17.26,14.5"/>
  <path class="cls-3" d="m1073.19,270.2c-2.67-2.24-14.83-14.62-8.89-27.05,2.45-5.12.54-8.9-3.14-14.69-2.81-4.41-6.22,1.74-7.68,4.93-.4.88-1.62,1.06-2.32.37-7.51-7.39,8.45-12.81,4.69-18.6-3.98-6.13,8.26-17.15,6.93-24.12-1.23-6.48-9.94,3.43-11.16,4.86-.1.12-.22.22-.35.3-11.51,6.92-10.73-11.32-4.28-14.41s2.51-8.91,2.51-8.91c0,0-.74-2.2-6.29-.52-5.55,1.67,1.42-4.18-1.2-12.67-2.62-8.49,10.73-15.76,1.2-21.43-9.53-5.67-6.39,11.1-11.44,22.01-5.04,10.91,6.08,23.94-4.17,18.78-10.25-5.16,7.3-24.67-3.47-20.49-10.77,4.19-5.15,12.82-5.7,19.74-.55,6.92,18.39,26.81,14.16,29.8-4.23,2.99-5.95-3.27-8.73-5.94s-5.76-2.9-6.46,2.04c-.69,4.94,9.25,19.04,14.62,20.98,5.37,1.94,16.01,28.44,15.44,33.5-.57,5.06-3.56,1.91-13.12,1.34-8.22-.49-4.41,4.9-3.17,6.43.21.26.51.43.85.49,28.77,5.15,42.96,16.87,48.48,22.76.91.97,2.59.25,2.43-1.03,0,0,2.94-7.84-9.72-18.46Z"/>
  <path class="cls-2" d="m243.74,235.62c-2.67-2.24-14.83-14.62-8.89-27.05,2.45-5.12.54-8.9-3.14-14.69-2.81-4.41-6.22,1.74-7.68,4.93-.4.88-1.62,1.06-2.32.37-7.51-7.39,8.45-12.81,4.69-18.6-3.98-6.13,8.26-17.15,6.93-24.12-1.23-6.48-9.94,3.43-11.16,4.86-.1.12-.22.22-.35.3-11.51,6.92-10.73-11.32-4.28-14.41,6.49-3.11,2.51-8.91,2.51-8.91,0,0-.74-2.2-6.29-.52-5.55,1.67,1.42-4.18-1.2-12.67-2.62-8.49,10.73-15.76,1.2-21.43-9.53-5.67-6.39,11.1-11.44,22.01s6.08,23.94-4.17,18.78c-10.25-5.16,7.3-24.67-3.47-20.49-10.77,4.19-5.15,12.82-5.7,19.74-.55,6.92,18.39,26.81,14.16,29.8-4.23,2.99-5.95-3.27-8.73-5.94-2.79-2.67-5.76-2.9-6.46,2.04-.69,4.94,9.25,19.04,14.62,20.98s16.01,28.44,15.44,33.5c-.57,5.06-3.56,1.91-13.12,1.34-8.22-.49-4.41,4.9-3.17,6.43.21.26.51.43.85.49,28.77,5.15,42.96,16.87,48.48,22.76.91.97,2.59.25,2.43-1.03,0,0,2.94-7.84-9.72-18.46Z"/>
  <path class="cls-4" d="m235.42,100.9s6.71-9.08,10.61-5.45c3.9,3.63-7.84,13.93-.69,19.53,4.81,3.77,5.47,8.56,5.39,11.29-.06,1.9,3.48,3.25,6.87,2.61.16-.03.32-.06.48-.1,4.66-.98,9.07,1.65,6.43,3.89-1.48,1.25-3.56,2.76-6.41,4.59-.58.37-.97.81-1.12,1.28-1.11,3.54-5.36,18.88,4.5,17.54,0,0,6.64-3.16,8.34-.47,1.63,2.58-8.94,7.17-7.95,10.94.09.32.15.64.06.96-.79,2.75-4.51,16.58,0,20.2,5.02,4.01,20.3-27.9,26.01-38.88,5.71-10.97.11-14.98-7.24-18.31-7.23-3.27-22.86-8.73-19.99-25.32.11-.65.66-1.28,1.59-1.72,1.71-.79,4.76-1.38,8.25,1.74,5.36,4.79-5.69,8.54,3.95,13.72,0,0,11.57,12.93,23.99,2.84,3.15-2.56-2.26-7.14-6.01-12.7-.15-.23-.36-.44-.62-.64-3.04-2.32-23.18-18.39-14.83-32.06.1-.16.17-.32.2-.49.26-1.34,1.17-7.5-4.14-8.78-5.97-1.44-11.59-5-6.03-7.11,5.56-2.11,9.15,3.95,13.76,4.18,4.6.24,7.12-21.49,17.02-22.87,9.9-1.38,4.71,21.99-3.58,26.87-8.29,4.88-6.68,12.85-2.73,13.47s14.9-13.81,19.49-10.38c4.54,3.39.79,7.61-11.69,21.36-.27.29-.43.61-.49.93-.26,1.52-.72,6.2,2.28,10.83,3.66,5.63,13.91,17.46,8.87,24.56-3.64,5.13-13.13,18.13-14.72,25.27-.48,2.18,4.07,3.73,7.67,2.61,3.36-1.04,7.45-1.49,9.49,1.39,3.75,5.29-16.52,3.3-22.82,13.8-.2.33-.51.65-.92.92-2.41,1.56-10.69,7.35-6.08,10.56,4.47,3.12,10.98-6.08,13-9.19.49-.75,1.56-1.35,2.96-1.64,2.67-.55,6.51-.65,5.29,3.82-1.59,5.87-7.37,10.01-8.74,10.93-.18.12-.36.22-.58.32-2.18,1.03-16.03,7.8-16.24,14.14-.17,5.09-18.53,5.36-28.05,5.16-3.01-.06-5.27-1.46-4.91-3.03,1.75-7.66,6.02-28.57,1.67-33.13-4.8-5.05-2.21-13.72-1.64-15.43.08-.23.1-.45.06-.69-.27-1.66-2.36-8.22-18.41-11.57-18.48-3.86-27.17-8.25-29.23-10.76-.81-.99-.98-2.06-.89-2.98.17-1.7,3.25-2.91,6.39-2.49,2.4.32,5.38,1.11,8.53,2.85,7.51,4.15,14.39,6.93,22.75,5.59,7.99-1.28-1.75-19.66-2.64-21.29-.04-.08-.09-.15-.15-.23-.89-1.19-8.55-11.48-14.7-17.64-6.54-6.54,1.28-9.71.74-9.21-.54.5,9.63-1.55,16.54,13.9"/>
  <path class="cls-7" d="m304.11,268.51c2.89-2.43,16.09-15.85,9.64-29.34-2.66-5.56-.59-9.65,3.41-15.93,3.05-4.79,6.74,1.89,8.33,5.35.44.95,1.75,1.14,2.51.4,8.15-8.02-9.16-13.89-5.08-20.17,4.32-6.65-8.96-18.6-7.52-26.16,1.34-7.03,10.79,3.72,12.11,5.27.11.13.24.23.38.32,12.48,7.5,11.64-12.27,4.64-15.63-7.04-3.37-2.72-9.67-2.72-9.67,0,0,.8-2.38,6.82-.57,6.02,1.81-1.54-4.54,1.3-13.75,2.85-9.21-11.64-17.1-1.3-23.24,10.34-6.15,6.93,12.04,12.41,23.87,5.47,11.83-6.59,25.97,4.53,20.38,11.12-5.59-7.92-26.76,3.76-22.22,11.68,4.54,5.59,13.91,6.18,21.41.59,7.51-19.95,29.08-15.36,32.32,4.59,3.24,6.45-3.54,9.47-6.44,3.02-2.9,6.25-3.15,7.01,2.21.75,5.36-10.03,20.65-15.86,22.76-5.83,2.11-17.36,30.85-16.74,36.34.62,5.49,3.86,2.07,14.23,1.45,8.91-.53,4.78,5.32,3.44,6.97-.23.28-.55.46-.92.53-31.21,5.59-46.6,18.3-52.59,24.69-.98,1.05-2.81.28-2.63-1.12,0,0-3.19-8.5,10.54-20.03Z"/>
  <path class="cls-5" d="m1280.89,225.4s-755.61,206-962.04,90.3C112.41,199.99,0,274.4,0,274.4l1.06,131.6h1279.83v-180.59"/>
  <path class="cls-9" d="m831.21,406l162.5-183.61h89.9s-15.24-64,27.43-59.43,88.38-48.76,88.38-48.76l80.26,16.74,1.2,275.06h-449.68Z"/>
  <path class="cls-6" d="m105.92,142.4c2.67-2.24,14.83-14.62,8.89-27.05-2.45-5.12-.54-8.9,3.14-14.69,2.81-4.41,6.22,1.74,7.68,4.93.4.88,1.62,1.06,2.32.37,7.51-7.39-8.45-12.81-4.69-18.6,3.98-6.13-8.26-17.15-6.93-24.12,1.23-6.48,9.94,3.43,11.16,4.86.1.12.22.22.35.3,11.51,6.92,10.73-11.32,4.28-14.41-6.49-3.11-2.51-8.91-2.51-8.91,0,0,.74-2.2,6.29-.52,5.55,1.67-1.42-4.18,1.2-12.67,2.62-8.49-10.73-15.76-1.2-21.43,9.53-5.67,6.39,11.1,11.44,22.01,5.04,10.91-6.08,23.94,4.17,18.78,10.25-5.16-7.3-24.67,3.47-20.49,10.77,4.19,5.15,12.82,5.7,19.74s-18.39,26.81-14.16,29.8c4.23,2.99,5.95-3.27,8.73-5.94,2.79-2.67,5.76-2.9,6.46,2.04.69,4.94-9.25,19.04-14.62,20.98-5.37,1.94-16.01,28.44-15.44,33.5s3.56,1.91,13.12,1.34c8.22-.49,4.41,4.9,3.17,6.43-.21.26-.51.43-.85.49-28.77,5.15-42.96,16.87-48.48,22.76-.91.97-2.59.25-2.43-1.03,0,0-2.94-7.84,9.72-18.46Z"/>
  <path class="cls-9" d="m1.5,406.94h356.9s-43.86-122.66-39.29-162.28-79.24-54.86-79.24-54.86l-60.66-15.02s-18.1-49.69-46-76.41C88.29,55.38,1.5,34.38,1.5,34.38"/>
</svg>