<?xml version="1.0" encoding="UTF-8"?>
<svg id="Layer_1" data-name="Layer 1" xmlns="http://www.w3.org/2000/svg" viewBox="0 0 270.41 202.3">
  <defs>
    <style>
      .cls-1 {
        fill: #fff;
      }
    </style>
  </defs>
  <path class="cls-1" d="m268.43,99.87c-2.14-6.3-5.88-11.59-10.59-15.57-5.16-7.95-11.49-20.51-15.53-38.38,15.36-61.91-82.03-60.87-63.57,1.02-4.61,5.28-12.23,9.21-24.34,4.25-11.88-46.95-80.6-26.92-65.16,19.05-3.12,6.09-9.5,13.8-21.38,11.83-19.86-61.61-100.84-7.48-52.94,35.03,4.88,9.33,10.14,22.75,13.23,40.7-1.94,6.6-1.96,13.86.39,20.92,15.23,43.25,78.72,21.66,64.4-21.92,4.95-6.11,12.8-10.85,24.36-5.2,15.83,31.25,64.62,19.2,63.99-15.68,3.14-6.83,10.07-17.48,22.29-15.52,14.02,44.25,78.89,23.72,64.84-20.54ZM6.94,91.98c-3.19-36.39,50.84-42.06,55.27-5.8,3.19,36.39-50.84,42.06-55.27,5.8Zm56.79,103.66c-36.39,3.19-42.06-50.84-5.8-55.27,36.39-3.19,42.06,50.84,5.8,55.27Zm37.41-85c-4.52,26.87-.08,25.35-19.99,6.78-1.51.15,2.73-20.17,2.53-20.81.21-1.33,1.82-1.88,2.8-.95.28.67,15.9,14.14,14.66,14.98Zm-7.58-49.15c-3.19-36.39,50.84-42.06,55.27-5.8,3.19,36.39-50.84,42.06-55.27,5.8Zm56.48,101.56c-36.39,3.19-42.06-50.84-5.8-55.27,36.39-3.19,42.06,50.84,5.8,55.27Zm44.34-81.32c-4.52,26.87-.08,25.35-19.99,6.78-1.51.15,2.73-20.17,2.53-20.81.21-1.33,1.82-1.88,2.8-.95.28.67,15.9,14.14,14.66,14.98Zm-11.83-44.83c-3.19-36.39,50.84-42.06,55.27-5.8,3.19,36.39-50.84,42.06-55.27,5.8Zm56.48,101.56c-36.39,3.19-42.06-50.84-5.8-55.27,36.39-3.19,42.06,50.84,5.8,55.27Z"/>
</svg>