<?xml version="1.0" encoding="UTF-8"?>
<svg id="Layer_1" data-name="Layer 1" xmlns="http://www.w3.org/2000/svg" viewBox="0 0 996.39 543.49">
  <defs>
    <style>
      .cls-1 {
        fill: #a0a0a0;
      }
    </style>
  </defs>
  <path class="cls-1" d="m336.96,139.95C172.56,158.52,0,232.34,0,271.74c0,19.93,27.17,57.07,79.71,92.85,53.58-45.92,131.13-36.28,192.03-24.91-42.91,38.46-70.98,41.18-106.16,76.24,39.4,18.12,62.23,17.06,118.39,26.57,37.14,63.41,94.2,101,123.64,101v-90.58c135.87,0,362.32-90.58,362.32-90.58,0,0,90.58,135.87,181.16,135.87l-45.29-181.16,90.58-271.74c-90.58,0-226.45,181.16-226.45,181.16,0,0-110.96-45.29-224.19-71.11-14.95-38.95-23.55-91.94-2.26-155.35-69.75,0-165.76,53.44-206.52,139.95m-110.51,131.8c-26.66.48-51.01-26.1-43.93-52.54,24.46-7.7,51.18-15.4,78.81-20.83,24.37,27.51,2.21,74.53-34.87,73.37"/>
  <path d="m178.18,214.49l85.19-20.83s47.06,66.74-25.08,77.24c-61.58,8.96-60.11-56.41-60.11-56.41Z"/>
</svg>