<?xml version="1.0" encoding="UTF-8"?>
<svg id="Layer_1" data-name="Layer 1" xmlns="http://www.w3.org/2000/svg" viewBox="0 0 324.32 178.22">
  <path d="m301.53,131.89c.1-2.53.91-5.05,2.29-7.19l18.2-28.24c2.68-4.16,3.04-9.52.94-13.57-2.12-4.04-6.3-5.95-10.56-4.84l-59.29,15.52c-17.7-28.64-37.81-49.48-58.89-64.11,1.39-5.67,2.39-13.17.47-19.74-3.04-10.3-43.22-9.41-63.45-6.86C121.33.98,111.51.09,101.95,0c3.79,20.9,2.56,43.81-4.64,66.48-6.96,21.91-18.6,40.79-33.06,55.47,11.69,8,24.85,14.85,39.39,19.83.24,1.19.63,2.35,1.22,3.4l13.6,24.62c2.89,5.23,9.1,6.5,14.09,2.88l3.99-2.91c2.96-2.16,4.99-5.73,5.45-9.6.47-3.88-.7-7.59-3.12-9.99l-.67-.67c30.94,3.47,66.5-1.32,106.18-18.82l37.26,44.27c2.84,3.37,7.35,4.22,11.42,2.13,4.06-2.08,6.85-6.68,7.06-11.61l1.43-33.58Z"/>
  <path d="m91.61.21C52.46,2.22,18.44,17.49,0,34.42c5.34,24.7,24.6,57.13,55.9,81.45,14.1-13.55,25.46-31.39,32.12-52.34,6.89-21.69,7.76-43.58,3.6-63.32Zm-17.97,40.64c-.79,1.81-7.08.86-14.78-2.06-3.82,7.95-8.09,13.45-9.99,12.62-1.9-.83-.76-7.7,2.49-15.9-7.37-3.68-12.34-7.65-11.55-9.46.79-1.82,7.14-.85,14.89,2.09,3.53-6.82,7.23-11.31,8.96-10.56,1.73.76.94,6.52-1.67,13.74,7.42,3.69,12.44,7.69,11.65,9.51Z"/>
</svg>