<?xml version="1.0" encoding="UTF-8"?>
<svg id="Layer_1" data-name="Layer 1" xmlns="http://www.w3.org/2000/svg" viewBox="0 0 107.59 59.78">
  <defs>
    <style>
      .cls-1 {
        fill: #010101;
      }
    </style>
  </defs>
  <path class="cls-1" d="m25.25,8.46C13.17,13.08,4.06,21.32,0,28.5c4.18,7.2,13.52,15.41,25.81,19.86,3.04-5.68,4.79-12.43,4.75-19.67-.04-7.5-2-14.45-5.31-20.22Zm-8.76,20.84c-1.75.01-3.17-1.66-3.19-3.73-.01-2.08,1.39-3.77,3.14-3.78s3.18,1.66,3.19,3.74-1.4,3.76-3.14,3.77Z"/>
  <path class="cls-1" d="m104.45,28.41c-.22-.8-.23-1.68-.01-2.49l2.84-10.7c.42-1.58-.01-3.29-1.09-4.35-1.08-1.05-2.58-1.23-3.8-.44l-17.01,10.89c-8.46-7.18-16.89-11.67-24.98-14.11-.14-1.92-.59-4.37-1.86-6.24-2-2.92-14.51,1.44-20.59,4.3-3.3.42-6.47,1.14-9.47,2.08,3.31,6.17,5.26,13.48,5.3,21.32.04,7.58-1.68,14.68-4.73,20.75,4.48,1.32,9.3,2.13,14.37,2.21.2.35.44.67.73.94l6.77,6.34c1.44,1.35,3.51,1.11,4.71-.53l.95-1.32c.71-.98.98-2.3.73-3.56-.25-1.26-.99-2.31-2-2.81l-.28-.14c10.05-2.06,20.72-7.17,31.38-16.69l16.18,10.09c1.23.77,2.73.58,3.8-.49,1.06-1.07,1.47-2.79,1.03-4.36l-2.96-10.67Z"/>
</svg>