<?xml version="1.0" encoding="UTF-8"?>
<svg id="Layer_1" data-name="Layer 1" xmlns="http://www.w3.org/2000/svg" viewBox="0 0 185.17 57.99">
  <defs>
    <style>
      .cls-1 {
        stroke-width: 1.99px;
      }

      .cls-1, .cls-2, .cls-3 {
        fill: #f16e80;
      }

      .cls-1, .cls-3 {
        stroke: #707171;
        stroke-miterlimit: 10;
      }

      .cls-2 {
        opacity: .99;
      }

      .cls-3 {
        stroke-width: 2px;
      }
    </style>
  </defs>
  <path class="cls-2" d="m48.4,55.53l-4.25-6.74c-.48-1.75.56-3.56,2.31-4.04L179.06,8.58c1.75-.48,3.56.56,4.04,2.31l1.96,7.18c.48,1.75-.56,3.56-2.31,4.04L58.57,56.92c-1.75.48-9.69.36-10.17-1.39Z"/>
  <path class="cls-2" d="m6.09,1.03C4.35,3.32-2.46,7.51.94,10.71c0,0,46.93,46.43,46.93,46.43,1.58-2.62,11.42-8.47,7.49-12.05,0,0-44.69-44.22-44.69-44.22-1.24-1.22-3.29-1.15-4.58.15Z"/>
  <path class="cls-3" d="m41.31,47.75l12.7-3.89s.06.02.04.05l-5.57,12.5c-.04.09-.16.11-.23.04l-7.31-7.23c-.48-.47-.28-1.28.36-1.47Z"/>
  <path class="cls-1" d="m48.4,55.53l6.52-11.74c.04-.07.13-.07.16,0l3.96,10.88c.24.66-.3,1.44-1.05,1.51l-8.69.81c-.81.08-1.3-.72-.89-1.46Z"/>
</svg>