<?xml version="1.0" encoding="UTF-8"?>
<svg id="Layer_1" data-name="Layer 1" xmlns="http://www.w3.org/2000/svg" viewBox="0 0 68.35 176.17">
  <defs>
    <style>
      .cls-1 {
        stroke-width: 1.99px;
      }

      .cls-1, .cls-2 {
        fill: none;
        stroke: #707171;
        stroke-miterlimit: 10;
      }

      .cls-2 {
        stroke-width: 2px;
      }

      .cls-3 {
        fill: #f6921e;
        opacity: .99;
      }
    </style>
  </defs>
  <path class="cls-3" d="m4.16,34.47l7.63-2.33c1.82,0,3.29,1.47,3.29,3.29v137.44c0,1.82-1.47,3.29-3.29,3.29h-7.44c-1.82,0-3.29-1.47-3.29-3.29L.14,43.91c0-1.82,2.2-9.44,4.02-9.44Z"/>
  <path class="cls-3" d="m67.88,7.99c-1.75-2.28-4.01-9.96-7.98-7.51,0,0-57.14,33.06-57.14,33.06,2.12,2.21,5.17,13.24,9.65,10.4,0,0,54.42-31.48,54.42-31.48,1.51-.87,1.98-2.87,1.06-4.46Z"/>
  <path class="cls-2" d="m13.54,29.68l.41,13.28s-.03.05-.06.03l-10.6-8.66c-.08-.06-.07-.19.02-.24l8.9-5.15c.58-.33,1.31.07,1.33.74Z"/>
  <path class="cls-1" d="m4.16,34.47l9.61,9.38c.05.05.03.15-.04.15l-11.54.96c-.7.06-1.31-.67-1.18-1.41l1.51-8.6c.14-.8,1.04-1.06,1.64-.47Z"/>
</svg>