<?xml version="1.0" encoding="UTF-8"?>
<svg id="Layer_1" data-name="Layer 1" xmlns="http://www.w3.org/2000/svg" viewBox="0 0 181.04 180.84">
  <defs>
    <style>
      .cls-1 {
        fill: #fff4b3;
      }
    </style>
  </defs>
  <circle class="cls-1" cx="90.62" cy="90.42" r="44.96"/>
  <rect class="cls-1" x="84.6" y="0" width="12.41" height="29.71" rx="5.31" ry="5.31"/>
  <rect class="cls-1" x="137.85" y="22.13" width="12.41" height="29.71" rx="5.31" ry="5.31" transform="translate(68.35 -91.03) rotate(45)"/>
  <rect class="cls-1" x="137.71" y="129" width="12.41" height="29.71" rx="5.31" ry="5.31" transform="translate(347.39 143.82) rotate(135)"/>
  <rect class="cls-1" x="84.42" y="151.14" width="12.41" height="29.71" rx="5.31" ry="5.31" transform="translate(181.25 331.98) rotate(180)"/>
  <rect class="cls-1" x="159.99" y="75.57" width="12.41" height="29.71" rx="5.31" ry="5.31" transform="translate(256.61 -75.77) rotate(90)"/>
  <rect class="cls-1" x="30.79" y="22.13" width="12.41" height="29.71" rx="5.31" ry="5.31" transform="translate(89.3 36.99) rotate(135)"/>
  <rect class="cls-1" x="30.93" y="129" width="12.41" height="29.71" rx="5.31" ry="5.31" transform="translate(112.6 15.88) rotate(45)"/>
  <rect class="cls-1" x="8.65" y="75.57" width="12.41" height="29.71" rx="5.31" ry="5.31" transform="translate(105.28 75.57) rotate(90)"/>
</svg>