<?xml version="1.0" encoding="UTF-8"?>
<svg id="Layer_1" data-name="Layer 1" xmlns="http://www.w3.org/2000/svg" xmlns:xlink="http://www.w3.org/1999/xlink" viewBox="0 0 374.7 194.74">
  <defs>
    <style>
      .cls-1 {
        fill: url(#linear-gradient);
      }
    </style>
    <linearGradient id="linear-gradient" x1="0" y1="97.37" x2="374.7" y2="97.37" gradientUnits="userSpaceOnUse">
      <stop offset="1" stop-color="#104c60"/>
      <stop offset="1" stop-color="#235d6c"/>
      <stop offset="1" stop-color="#57898d"/>
      <stop offset="1" stop-color="#aad0c1"/>
      <stop offset="1" stop-color="#bde1cd"/>
    </linearGradient>
  </defs>
  <path class="cls-1" d="m367.89,135.89c-7.95-4.7-14.91-11.39-18.48-19.91-3.32-9.07-14.81-11.16-20.81-17.84,15.8-.38,43.44-2.14,37.36-9.88C322.15,46.89,287.16,12.11,233.12,2.52c-53.26-9.49-113.6,7.96-149.4,49.17-2.41.25-4.37-.2-6.31-2.46-9.61-11.21-21.21-19.1-35.38-21.82C24.21,22.15,1.68,41.82,1.66,45.93c-2.88,4-3.25,26.72,9.28,32.68,14.78,9.82,33.81,9.11,50.01,1.89,5.72-1.87,15.5.13,15.36,9.78-.12,8.84.78,17.47,3.36,25.95,7.32,28.29,38.49,41.73,42.85,71.45.94,4.9,6.37,8.72,11.24,6.33,12.82-14.51,16.36-30.88,10.62-49.2-2.56-8.18-6.53-15.6-11.05-22.79-2.41-2.94-6.58-5.78-4.36-10.14,1.39-3.01,3.07-3.44,5.87-1.61,46.52,31.18,109.86,36.31,159.46,9.22,2.21-1.35,3.19-1.57,4.41.6,3.6,6.35,8.23,11.47,15.54,13.95,13.38,4.54,26.56,9.66,39.95,14.18,7.46,2.52,14.07.5,19.52-5.29,2.24-2.38.88-3.08-5.81-7.04Z"/>
</svg>