<?xml version="1.0" encoding="UTF-8"?>
<svg id="Layer_1" data-name="Layer 1" xmlns="http://www.w3.org/2000/svg" viewBox="0 0 173.73 217.69">
  <defs>
    <style>
      .cls-1 {
        fill: #fff;
      }

      .cls-2 {
        fill: #f27677;
      }

      .cls-3 {
        fill: #ffe0bf;
      }
    </style>
  </defs>
  <path class="cls-3" d="m75.56,69.36L.71,208.26c-1.31,2.43-.76,5.26,1.23,6.33,3.02,1.36,8.2,6.02,11.15.34,0,0,74.85-138.9,74.85-138.9,3.06-5.48-3.55-7.5-6.42-9.13-1.99-1.07-4.66.03-5.97,2.45Z"/>
  <path class="cls-2" d="m3.1,40.35l25.41,13.69S64.16,7.86,105.2,1.23c0,0-65.41-12-102.09,39.12Z"/>
  <path class="cls-2" d="m166.56,128.55l-22.72-12.75s15.55-53.45.02-92.01c0,0,47.5,46.93,22.7,104.76Z"/>
  <path class="cls-1" d="m27.38,53.18l33.09,17.83S93.77,11.78,120.1,2.79c0,0-49.15-15.49-92.72,50.39Z"/>
  <path class="cls-1" d="m142.55,114.86l-32.97-18.05s30.44-58.75,23.64-85.73c0,0,40.87,31.37,9.33,103.78Z"/>
  <path class="cls-2" d="m108.82,96.84l-47.45-25.57c-.25-.14-.35-.44-.21-.7,2.96-5.43,32.19-58.19,54.08-66.61,2.75-1.06,5.84-.73,8.37.79l7.12,4.27c1.84,1.1,3.01,3.04,3.12,5.18.43,8.31-1.28,32.15-24.32,82.39-.12.27-.45.38-.71.24Z"/>
</svg>