<?xml version="1.0" encoding="UTF-8"?>
<svg id="Layer_1" data-name="Layer 1" xmlns="http://www.w3.org/2000/svg" viewBox="0 0 154.83 387.5">
  <defs>
    <style>
      .cls-1 {
        fill: #e0ecf4;
      }

      .cls-1, .cls-2 {
        stroke: #231f20;
        stroke-miterlimit: 10;
        stroke-width: 14.17px;
      }

      .cls-2 {
        fill: #b15b43;
      }
    </style>
  </defs>
  <path class="cls-2" d="m113.02,47.63H42.41c-6.8,0-12.31-4.69-12.31-10.48v-19.57c0-5.79,5.51-10.48,12.31-10.48h70.6c6.8,0,12.31,4.69,12.31,10.48v19.57c0,5.79-5.51,10.48-12.31,10.48Z"/>
  <path class="cls-1" d="m46.57,47.63v14.76c0,6.03-3.09,11.78-8.5,15.8l-21.45,15.96c-6.07,4.52-9.54,10.97-9.54,17.75v25.69c0,7.7,3.29,15.16,9.27,21.04h0c2.94,2.88,3.31,7.01.93,10.23l-6.2,8.39c-2.38,3.22-2.38,7.61,0,10.83l6.52,8.84c1.96,2.66,2.07,5.99.28,8.73l-7.95,12.22c-1.76,2.71-1.68,5.99.21,8.64l6.89,9.62c1.84,2.57,1.97,5.75.35,8.42l-7.61,12.53c-1.67,2.74-1.48,6.01.49,8.61l3.85,5.08c3.63,4.79,3.62,11.41-.03,16.19h0c-3.55,4.66-5.41,10.08-5.33,15.6l.92,68.12c.07,5.41,5.37,9.76,11.87,9.76h114.33c6.56,0,11.87-4.42,11.87-9.87v-73.18c0-2.39-1.1-4.69-3.07-6.43l-6.22-5.49c-4.31-3.81-4.66-9.65-.83-13.79l4.15-4.48c3.38-3.65,3.39-9.27.04-12.94l-6.44-7.04c-3.37-3.68-3.33-9.33.07-12.98l6.21-6.65c3.43-3.67,3.43-9.36.01-13.04l-6.41-6.9c-3.71-3.99-3.54-9.59.4-13.42l5.36-5.22c3.92-3.82,4.1-9.39.44-13.38l-5.55-6.03c-3.98-4.33-3.39-10.46,1.38-14.21l4.03-3.16c4.1-3.22,6.43-7.71,6.43-12.4v-32.05c0-4.57-2.2-8.94-6.11-12.15l-24.74-20.29c-4.86-3.99-7.6-9.42-7.6-15.1v-12.58"/>
  <line class="cls-1" x1="18.84" y1="201.91" x2="132.44" y2="201.91"/>
  <line class="cls-1" x1="16.47" y1="279.2" x2="135.1" y2="279.2"/>
  <line class="cls-1" x1="19.4" y1="163.59" x2="133.01" y2="163.59"/>
  <line class="cls-1" x1="18.94" y1="239.74" x2="132.55" y2="239.74"/>
</svg>